<svg title="Alert Speed Logo" width="390" height="81" xmlns="http://www.w3.org/2000/svg" xmlns:xlink="http://www.w3.org/1999/xlink"
  xml:space="preserve" overflow="hidden">
  <defs>
    <clipPath id="clip0">
      <rect x="790" y="460" width="390" height="81" />
    </clipPath>
    <clipPath id="clip1">
      <rect x="791" y="461" width="388" height="80" />
    </clipPath>
    <clipPath id="clip2">
      <rect x="791" y="461" width="388" height="80" />
    </clipPath>
    <clipPath id="clip3">
      <rect x="791" y="461" width="388" height="80" />
    </clipPath>
    <linearGradient x1="27.2582" y1="30.3734" x2="104.594" y2="30.3734" gradientUnits="userSpaceOnUse"
      spreadMethod="pad" id="fill4">
      <stop offset="0" stop-color="#29ABE2" stop-opacity="1" />
      <stop offset="0.68" stop-color="#29ABE2" stop-opacity="1" />
      <stop offset="1" stop-color="#29ABE2" stop-opacity="0.4" />
    </linearGradient>
    <linearGradient x1="0" y1="36.557" x2="107.616" y2="36.557" gradientUnits="userSpaceOnUse" spreadMethod="pad"
      id="fill5">
      <stop offset="0" stop-color="#6C2C8B" stop-opacity="1" />
      <stop offset="0.57" stop-color="#6C2C8B" stop-opacity="1" />
      <stop offset="1" stop-color="#6C2C8B" stop-opacity="0.4" />
    </linearGradient>
    <linearGradient x1="33.5472" y1="49.2229" x2="110.901" y2="49.2229" gradientUnits="userSpaceOnUse"
      spreadMethod="pad" id="fill6">
      <stop offset="0" stop-color="#00A9A5" stop-opacity="1" />
      <stop offset="0.63" stop-color="#00A9A5" stop-opacity="1" />
      <stop offset="1" stop-color="#00A9A5" stop-opacity="0.4" />
    </linearGradient>
    <linearGradient x1="54.6511" y1="24.9921" x2="100.331" y2="24.9921" gradientUnits="userSpaceOnUse"
      spreadMethod="pad" id="fill7">
      <stop offset="0" stop-color="#EB0A7C" stop-opacity="1" />
      <stop offset="0.32" stop-color="#EB0A7C" stop-opacity="1" />
      <stop offset="0.43" stop-color="#EB0A7C" stop-opacity="0.98" />
      <stop offset="0.54" stop-color="#EB0A7C" stop-opacity="0.93" />
      <stop offset="0.66" stop-color="#EB0A7C" stop-opacity="0.84" />
      <stop offset="0.78" stop-color="#EB0A7C" stop-opacity="0.72" />
      <stop offset="0.89" stop-color="#EB0A7C" stop-opacity="0.57" />
      <stop offset="1" stop-color="#EB0A7C" stop-opacity="0.4" />
    </linearGradient>
  </defs>
  <g clip-path="url(#clip0)" transform="translate(-790 -460)">
    <g clip-path="url(#clip1)">
      <g clip-path="url(#clip2)">
        <g clip-path="url(#clip3)">
          <path
            d="M82.3017 32.2121 73.6001 29.1086 39.9299 17.1103C34.6774 15.2365 28.9154 18.1116 27.2582 23.4345 27.2582 23.4345 70.2155 34.9702 70.2155 34.9702L79.2977 37.412 104.594 44.2046 101.649 39.1101 82.3017 32.2121Z"
            fill="url(#fill4)" fill-rule="nonzero" transform="matrix(1 0 0 1.00212 791.467 461)" />
          <path
            d="M78.0973 39.5025 68.8629 37.33 11.9573 23.9322C6.51738 22.6556 1.09501 26.1339 0 31.6148 0 31.6148 65.853 42.5298 65.853 42.5298L75.4271 44.1167 107.616 49.4513 105.613 45.9788 78.0914 39.5025Z"
            fill="url(#fill5)" fill-rule="nonzero" transform="matrix(1 0 0 1.00212 791.467 461)" />
          <path
            d="M73.7524 47.027 63.9617 45.809 44.5091 43.3906C38.9813 42.7055 33.9923 46.7635 33.5472 52.3205 33.5472 52.3205 59.6519 53.2692 59.6519 53.2692L69.9286 53.6439 110.901 55.1371 108.728 51.3719 73.7524 47.027Z"
            fill="url(#fill6)" fill-rule="nonzero" transform="matrix(1 0 0 1.00212 791.467 461)" />
          <path
            d="M87.0389 24.0083 78.9405 19.8625 67.9494 14.2352C63.0013 11.6997 56.9348 13.8253 54.6511 18.8963 54.6511 18.8963 74.9118 26.8483 74.9118 26.8483L83.4669 30.2036 100.331 36.8264 95.4008 28.2888 87.0389 24.0083Z"
            fill="url(#fill7)" fill-rule="nonzero" transform="matrix(1 0 0 1.00212 791.467 461)" />
          <path
            d="M139.149 50.7629 137.86 50.1012C137.86 50.1012 137.884 50.0661 137.896 50.0485L116.189 38.9345 94.54 1.42879C93.4392-0.474311 90.6929-0.474311 89.5978 1.43464L80.5332 17.2274 88.6317 21.3733 92.0689 15.3126 101.303 31.3104 105.707 38.9345 106.884 40.9781 109.513 45.5338 110.427 47.1148 112.218 50.2125 113.208 51.9282 115.146 55.2894 118.665 61.3852 65.4607 61.3852 68.1719 56.7182 57.8952 56.3434 52.1976 66.1927C51.0967 68.0958 52.4669 70.4732 54.6687 70.4732L129.463 70.4732C131.659 70.4732 133.029 68.0958 131.934 66.1927L125.862 55.6817 137.726 56.1502C140.777 56.279 141.872 52.1683 139.155 50.7688ZM121.927 48.8598 122.044 49.0648 121.927 48.8598Z"
            fill="#ffffff" fill-rule="nonzero" fill-opacity="1" transform="matrix(1 0 0 1.00212 791.467 461)" />
          <path
            d="M167.578 55.7988 167.578 70.5259 160.575 70.5259 160.575 67.3111C159.181 69.6592 156.499 70.9065 152.705 70.9065 146.661 70.9065 143.06 67.5512 143.06 63.0892 143.06 58.6271 146.275 55.3655 154.145 55.3655L160.094 55.3655C160.094 52.1507 158.174 50.2828 154.145 50.2828 151.41 50.2828 148.582 51.1963 146.708 52.6836L144.021 47.4545C146.849 45.4401 151.024 44.3334 155.152 44.3334 163.022 44.3334 167.578 47.9815 167.578 55.7988ZM160.094 62.3689 160.094 59.728 154.959 59.728C151.457 59.728 150.351 61.0221 150.351 62.7495 150.351 64.6233 151.932 65.8706 154.573 65.8706 157.067 65.8706 159.228 64.717 160.089 62.3689Z"
            fill="#ffffff" fill-rule="nonzero" fill-opacity="1" transform="matrix(1 0 0 1.00212 791.467 461)" />
          <path d="M169.868 34.9292 177.351 34.9292 177.351 70.5259 169.868 70.5259 169.868 34.9292Z" fill="#ffffff"
            fill-rule="nonzero" fill-opacity="1" transform="matrix(1 0 0 1.00212 791.467 461)" />
          <path
            d="M206.144 59.7338 186.621 59.7338C187.341 62.9486 190.076 64.9161 194.011 64.9161 196.745 64.9161 198.713 64.1022 200.487 62.4216L204.469 66.7373C202.068 69.4719 198.473 70.9124 193.817 70.9124 184.893 70.9124 179.09 65.3026 179.09 57.6258 179.09 49.949 184.993 44.3393 192.857 44.3393 200.721 44.3393 206.29 49.422 206.29 57.7253 206.29 58.2992 206.196 59.119 206.144 59.7397ZM186.521 55.3655 199.234 55.3655C198.707 52.1039 196.259 49.99 192.904 49.99 189.549 49.99 187.054 52.0512 186.521 55.3655Z"
            fill="#ffffff" fill-rule="nonzero" fill-opacity="1" transform="matrix(1 0 0 1.00212 791.467 461)" />
          <path
            d="M224.097 44.3334 224.097 51.2431C223.471 51.1963 222.996 51.1494 222.416 51.1494 218.288 51.1494 215.554 53.4039 215.554 58.3461L215.554 70.5317 208.07 70.5317 208.07 44.7199 215.22 44.7199 215.22 48.1279C217.041 45.6334 220.115 44.3393 224.097 44.3393Z"
            fill="#ffffff" fill-rule="nonzero" fill-opacity="1" transform="matrix(1 0 0 1.00212 791.467 461)" />
          <path
            d="M245.412 69.2786C243.878 70.3795 241.623 70.9124 239.322 70.9124 233.232 70.9124 229.678 67.7913 229.678 61.6545L229.678 51.0499 225.696 51.0499 225.696 45.2937 229.678 45.2937 229.678 39.0106 237.161 39.0106 237.161 45.2937 243.591 45.2937 243.591 51.0499 237.161 51.0499 237.161 61.555C237.161 63.7626 238.362 64.963 240.376 64.963 241.477 64.963 242.583 64.6292 243.397 64.0026L245.412 69.2786Z"
            fill="#ffffff" fill-rule="nonzero" fill-opacity="1" transform="matrix(1 0 0 1.00212 791.467 461)" />
          <path
            d="M246.489 68.125 248.984 62.7495C251.285 64.2369 254.787 65.244 257.955 65.244 261.41 65.244 262.704 64.3306 262.704 62.8959 262.704 58.674 247.11 62.9896 247.11 52.6777 247.11 47.7824 251.525 44.3275 259.056 44.3275 262.604 44.3275 266.539 45.1415 268.987 46.582L266.492 51.9048C263.951 50.4643 261.41 49.9841 259.056 49.9841 255.694 49.9841 254.26 51.0382 254.26 52.385 254.26 56.8001 269.853 52.5314 269.853 62.6968 269.853 67.4926 265.391 70.9006 257.668 70.9006 253.299 70.9006 248.89 69.7002 246.489 68.1192Z"
            fill="#ffffff" fill-rule="nonzero" fill-opacity="1" transform="matrix(1 0 0 1.00212 791.467 461)" />
          <path
            d="M299.952 57.6199C299.952 65.7301 294.336 70.9065 287.093 70.9065 283.878 70.9065 281.237 69.8993 279.322 67.7854L279.322 79.8247 271.839 79.8247 271.839 44.7082 278.988 44.7082 278.988 47.6828C280.862 45.4284 283.644 44.3275 287.098 44.3275 294.342 44.3275 299.957 49.5098 299.957 57.6141ZM292.374 57.6199C292.374 53.1579 289.546 50.4702 285.804 50.4702 282.062 50.4702 279.234 53.1579 279.234 57.6199 279.234 62.082 282.062 64.7697 285.804 64.7697 289.546 64.7697 292.374 62.082 292.374 57.6199Z"
            fill="#ffffff" fill-rule="nonzero" fill-opacity="1" transform="matrix(1 0 0 1.00212 791.467 461)" />
          <path
            d="M328.656 59.7338 309.133 59.7338C309.854 62.9486 312.588 64.9161 316.523 64.9161 319.258 64.9161 321.225 64.1022 323 62.4216L326.981 66.7373C324.581 69.4719 320.985 70.9124 316.33 70.9124 307.406 70.9124 301.603 65.3026 301.603 57.6258 301.603 49.949 307.505 44.3393 315.37 44.3393 323.234 44.3393 328.803 49.422 328.803 57.7253 328.803 58.2992 328.709 59.119 328.656 59.7397ZM309.034 55.3655 321.747 55.3655C321.219 52.1039 318.772 49.99 315.417 49.99 312.061 49.99 309.567 52.0512 309.034 55.3655Z"
            fill="#ffffff" fill-rule="nonzero" fill-opacity="1" transform="matrix(1 0 0 1.00212 791.467 461)" />
          <path
            d="M357.168 59.7338 337.645 59.7338C338.365 62.9486 341.1 64.9161 345.035 64.9161 347.769 64.9161 349.737 64.1022 351.511 62.4216L355.493 66.7373C353.092 69.4719 349.497 70.9124 344.841 70.9124 335.917 70.9124 330.114 65.3026 330.114 57.6258 330.114 49.949 336.017 44.3393 343.881 44.3393 351.745 44.3393 357.314 49.422 357.314 57.7253 357.314 58.2992 357.22 59.119 357.168 59.7397ZM337.545 55.3655 350.258 55.3655C349.731 52.1039 347.283 49.99 343.928 49.99 340.573 49.99 338.078 52.0512 337.545 55.3655Z"
            fill="#ffffff" fill-rule="nonzero" fill-opacity="1" transform="matrix(1 0 0 1.00212 791.467 461)" />
          <path
            d="M387.067 34.9292 387.067 70.5259 379.917 70.5259 379.917 67.5512C378.043 69.8056 375.314 70.9065 371.859 70.9065 364.569 70.9065 358.954 65.7242 358.954 57.6199 358.954 49.5157 364.569 44.3334 371.859 44.3334 375.027 44.3334 377.715 45.3406 379.583 47.4545L379.583 34.935 387.067 34.935ZM379.724 57.6199C379.724 53.1579 376.843 50.4702 373.154 50.4702 369.464 50.4702 366.531 53.1579 366.531 57.6199 366.531 62.082 369.412 64.7697 373.154 64.7697 376.895 64.7697 379.724 62.082 379.724 57.6199Z"
            fill="#ffffff" fill-rule="nonzero" fill-opacity="1" transform="matrix(1 0 0 1.00212 791.467 461)" />
        </g>
      </g>
    </g>
  </g>
</svg>